<mxfile host="app.diagrams.net" modified="2020-10-03T14:13:18.718Z" agent="5.0 (X11; Linux x86_64) AppleWebKit/537.36 (KHTML, like Gecko) Chrome/85.0.4183.121 Safari/537.36" etag="E_xq0FfkJcp2E0eyim_i" version="13.7.7" type="github">
  <diagram name="Page-1" id="e7e014a7-5840-1c2e-5031-d8a46d1fe8dd">
    <mxGraphModel dx="1185" dy="601" grid="1" gridSize="10" guides="1" tooltips="1" connect="1" arrows="1" fold="1" page="1" pageScale="1" pageWidth="1169" pageHeight="826" background="#ffffff" math="0" shadow="0">
      <root>
        <mxCell id="0" />
        <mxCell id="1" parent="0" />
        <mxCell id="HW0g_rQo9rSuHzjOqfy6-42" value="Actor" style="swimlane;" vertex="1" parent="1">
          <mxGeometry x="350" y="200" width="250" height="480" as="geometry" />
        </mxCell>
        <mxCell id="HW0g_rQo9rSuHzjOqfy6-44" value="" style="ellipse;html=1;shape=startState;fillColor=#000000;strokeColor=#ff0000;" vertex="1" parent="HW0g_rQo9rSuHzjOqfy6-42">
          <mxGeometry x="110" y="40" width="30" height="30" as="geometry" />
        </mxCell>
        <mxCell id="HW0g_rQo9rSuHzjOqfy6-45" value="" style="edgeStyle=orthogonalEdgeStyle;html=1;verticalAlign=bottom;endArrow=open;endSize=8;strokeColor=#ff0000;" edge="1" source="HW0g_rQo9rSuHzjOqfy6-44" parent="HW0g_rQo9rSuHzjOqfy6-42">
          <mxGeometry relative="1" as="geometry">
            <mxPoint x="125" y="100" as="targetPoint" />
          </mxGeometry>
        </mxCell>
        <mxCell id="HW0g_rQo9rSuHzjOqfy6-48" style="edgeStyle=orthogonalEdgeStyle;rounded=0;orthogonalLoop=1;jettySize=auto;html=1;exitX=0.5;exitY=1;exitDx=0;exitDy=0;entryX=0.5;entryY=0;entryDx=0;entryDy=0;" edge="1" parent="HW0g_rQo9rSuHzjOqfy6-42" source="HW0g_rQo9rSuHzjOqfy6-46" target="HW0g_rQo9rSuHzjOqfy6-47">
          <mxGeometry relative="1" as="geometry" />
        </mxCell>
        <mxCell id="HW0g_rQo9rSuHzjOqfy6-46" value="Người dùng nhập mã cần tìm vào ô tìm kiếm" style="rounded=1;whiteSpace=wrap;html=1;fillColor=#dae8fc;strokeColor=#6c8ebf;" vertex="1" parent="HW0g_rQo9rSuHzjOqfy6-42">
          <mxGeometry x="65" y="100" width="120" height="60" as="geometry" />
        </mxCell>
        <mxCell id="HW0g_rQo9rSuHzjOqfy6-47" value="Người dùng nhấn Enter&amp;nbsp; hoặc chọn &quot;Tìm kiếm&quot;" style="rounded=1;whiteSpace=wrap;html=1;fillColor=#dae8fc;strokeColor=#6c8ebf;" vertex="1" parent="HW0g_rQo9rSuHzjOqfy6-42">
          <mxGeometry x="65" y="190" width="120" height="60" as="geometry" />
        </mxCell>
        <mxCell id="HW0g_rQo9rSuHzjOqfy6-60" style="edgeStyle=orthogonalEdgeStyle;rounded=0;orthogonalLoop=1;jettySize=auto;html=1;exitX=0;exitY=0.5;exitDx=0;exitDy=0;entryX=0;entryY=0.5;entryDx=0;entryDy=0;" edge="1" parent="HW0g_rQo9rSuHzjOqfy6-42" source="HW0g_rQo9rSuHzjOqfy6-59" target="HW0g_rQo9rSuHzjOqfy6-44">
          <mxGeometry relative="1" as="geometry" />
        </mxCell>
        <mxCell id="HW0g_rQo9rSuHzjOqfy6-59" value="Người dùng xác nhận" style="rounded=1;whiteSpace=wrap;html=1;fillColor=#dae8fc;strokeColor=#6c8ebf;" vertex="1" parent="HW0g_rQo9rSuHzjOqfy6-42">
          <mxGeometry x="65" y="320" width="120" height="60" as="geometry" />
        </mxCell>
        <mxCell id="HW0g_rQo9rSuHzjOqfy6-43" value="Hệ thống" style="swimlane;" vertex="1" parent="1">
          <mxGeometry x="600" y="200" width="320" height="480" as="geometry" />
        </mxCell>
        <mxCell id="HW0g_rQo9rSuHzjOqfy6-54" style="edgeStyle=orthogonalEdgeStyle;rounded=0;orthogonalLoop=1;jettySize=auto;html=1;exitX=0.5;exitY=1;exitDx=0;exitDy=0;entryX=0.5;entryY=0;entryDx=0;entryDy=0;" edge="1" parent="HW0g_rQo9rSuHzjOqfy6-43" source="HW0g_rQo9rSuHzjOqfy6-49" target="HW0g_rQo9rSuHzjOqfy6-53">
          <mxGeometry relative="1" as="geometry" />
        </mxCell>
        <mxCell id="HW0g_rQo9rSuHzjOqfy6-49" value="Hệ thống tìm kiếm những hóa đơn phù hợp nhất với mã cần tìm trong CSDL" style="rounded=1;whiteSpace=wrap;html=1;fillColor=#dae8fc;strokeColor=#6c8ebf;" vertex="1" parent="HW0g_rQo9rSuHzjOqfy6-43">
          <mxGeometry x="30" y="190" width="120" height="60" as="geometry" />
        </mxCell>
        <mxCell id="HW0g_rQo9rSuHzjOqfy6-66" style="edgeStyle=orthogonalEdgeStyle;rounded=0;orthogonalLoop=1;jettySize=auto;html=1;exitX=0.5;exitY=1;exitDx=0;exitDy=0;entryX=0.5;entryY=0;entryDx=0;entryDy=0;" edge="1" parent="HW0g_rQo9rSuHzjOqfy6-43" source="HW0g_rQo9rSuHzjOqfy6-51" target="HW0g_rQo9rSuHzjOqfy6-65">
          <mxGeometry relative="1" as="geometry" />
        </mxCell>
        <mxCell id="HW0g_rQo9rSuHzjOqfy6-51" value="Hệ thống hiển thị danh sách những hóa đơn tìm được lên màn hình" style="rounded=1;whiteSpace=wrap;html=1;fillColor=#dae8fc;strokeColor=#6c8ebf;" vertex="1" parent="HW0g_rQo9rSuHzjOqfy6-43">
          <mxGeometry x="180" y="255" width="120" height="60" as="geometry" />
        </mxCell>
        <mxCell id="HW0g_rQo9rSuHzjOqfy6-62" style="edgeStyle=orthogonalEdgeStyle;rounded=0;orthogonalLoop=1;jettySize=auto;html=1;exitX=0.5;exitY=1;exitDx=0;exitDy=0;entryX=0.5;entryY=0;entryDx=0;entryDy=0;" edge="1" parent="HW0g_rQo9rSuHzjOqfy6-43" source="HW0g_rQo9rSuHzjOqfy6-53" target="HW0g_rQo9rSuHzjOqfy6-57">
          <mxGeometry relative="1" as="geometry" />
        </mxCell>
        <mxCell id="HW0g_rQo9rSuHzjOqfy6-63" style="edgeStyle=orthogonalEdgeStyle;rounded=0;orthogonalLoop=1;jettySize=auto;html=1;exitX=1;exitY=0.5;exitDx=0;exitDy=0;entryX=0;entryY=0.5;entryDx=0;entryDy=0;" edge="1" parent="HW0g_rQo9rSuHzjOqfy6-43" source="HW0g_rQo9rSuHzjOqfy6-53" target="HW0g_rQo9rSuHzjOqfy6-51">
          <mxGeometry relative="1" as="geometry" />
        </mxCell>
        <mxCell id="HW0g_rQo9rSuHzjOqfy6-64" value="Tìm thấy" style="edgeLabel;html=1;align=center;verticalAlign=middle;resizable=0;points=[];" vertex="1" connectable="0" parent="HW0g_rQo9rSuHzjOqfy6-63">
          <mxGeometry x="-0.6918" y="1" relative="1" as="geometry">
            <mxPoint x="16.45" y="1" as="offset" />
          </mxGeometry>
        </mxCell>
        <mxCell id="HW0g_rQo9rSuHzjOqfy6-53" value="" style="rhombus;whiteSpace=wrap;html=1;fillColor=#d5e8d4;strokeColor=#82b366;" vertex="1" parent="HW0g_rQo9rSuHzjOqfy6-43">
          <mxGeometry x="75" y="270" width="30" height="30" as="geometry" />
        </mxCell>
        <mxCell id="HW0g_rQo9rSuHzjOqfy6-57" value="Hệ thống hiển thị thống báo không tìm thấy hóa đơn phù hợp." style="rounded=1;whiteSpace=wrap;html=1;fillColor=#dae8fc;strokeColor=#6c8ebf;" vertex="1" parent="HW0g_rQo9rSuHzjOqfy6-43">
          <mxGeometry x="30" y="320" width="120" height="60" as="geometry" />
        </mxCell>
        <mxCell id="HW0g_rQo9rSuHzjOqfy6-65" value="" style="ellipse;html=1;shape=endState;fillColor=#000000;strokeColor=#ff0000;" vertex="1" parent="HW0g_rQo9rSuHzjOqfy6-43">
          <mxGeometry x="225" y="420" width="30" height="30" as="geometry" />
        </mxCell>
        <mxCell id="HW0g_rQo9rSuHzjOqfy6-50" style="edgeStyle=orthogonalEdgeStyle;rounded=0;orthogonalLoop=1;jettySize=auto;html=1;exitX=1;exitY=0.5;exitDx=0;exitDy=0;entryX=0;entryY=0.5;entryDx=0;entryDy=0;" edge="1" parent="1" source="HW0g_rQo9rSuHzjOqfy6-47" target="HW0g_rQo9rSuHzjOqfy6-49">
          <mxGeometry relative="1" as="geometry" />
        </mxCell>
        <mxCell id="HW0g_rQo9rSuHzjOqfy6-61" style="edgeStyle=orthogonalEdgeStyle;rounded=0;orthogonalLoop=1;jettySize=auto;html=1;exitX=0;exitY=0.5;exitDx=0;exitDy=0;entryX=1;entryY=0.5;entryDx=0;entryDy=0;" edge="1" parent="1" source="HW0g_rQo9rSuHzjOqfy6-57" target="HW0g_rQo9rSuHzjOqfy6-59">
          <mxGeometry relative="1" as="geometry" />
        </mxCell>
      </root>
    </mxGraphModel>
  </diagram>
</mxfile>
